<?xml version="1.0" standalone="no"?><!DOCTYPE svg PUBLIC "-//W3C//DTD SVG 1.1//EN" "http://www.w3.org/Graphics/SVG/1.1/DTD/svg11.dtd"><svg t="1653897325674" class="icon" viewBox="0 0 1024 1024" version="1.1" xmlns="http://www.w3.org/2000/svg" p-id="1280" xmlns:xlink="http://www.w3.org/1999/xlink" width="200" height="200"><defs><style type="text/css">@font-face { font-family: feedback-iconfont; src: url("//at.alicdn.com/t/font_1031158_u69w8yhxdu.woff2?t=1630033759944") format("woff2"), url("//at.alicdn.com/t/font_1031158_u69w8yhxdu.woff?t=1630033759944") format("woff"), url("//at.alicdn.com/t/font_1031158_u69w8yhxdu.ttf?t=1630033759944") format("truetype"); }
</style></defs><path d="M848.896 1020.8c-30.08 7.424-47.744 0.96-56.192-9.6-79.936-100.8-328.832-640.064-380.8-692.672-49.344-49.984-124.992-29.248-226.944 62.336a14.08 14.08 0 0 1-19.968-1.28L65.472 259.968a6.272 6.272 0 0 1 0.896-8.96c88.896-72.96 200.128-129.6 327.232-160.96a887.872 887.872 0 0 1 239.808-25.728c89.6 2.816 156.864 27.712 209.088 67.968 4.672 3.648 10.24 15.168-3.2 18.496-35.84 8.832-140.288 16.896-177.856 20.48-37.696 3.584-101.76 8.96-102.464 54.912-1.024 60.544 197.76 379.712 255.36 460.672a3068.16 3068.16 0 0 1 138.432 213.696c7.232 12.416 12.16 41.92-0.896 58.752-12.8 16.448-60.288 50.88-103.04 61.44z" fill="#4C8EB7" p-id="1281"></path></svg>